<?xml version="1.0" encoding="utf-8"?>
<!DOCTYPE svg PUBLIC "-//W3C//DTD SVG 1.0//EN" "http://www.w3.org/TR/2001/REC-SVG-20010904/DTD/svg10.dtd">
<svg version="1.0" xmlns="http://www.w3.org/2000/svg" width="1024px" height="246px" viewBox="0 0 1024 246" preserveAspectRatio="xMidYMid meet">
 <g fill="#000000">
  <path d="M34.6 201.1 l-3.8 -13.1 3.9 -5.2 c6.2 -8.2 12 -18.3 25.3 -44.3 23.2 -45.4 29.8 -58 36.6 -70 11.9 -21 12.6 -22.6 12.1 -26.9 -0.5 -3.2 0 -4.6 2 -7.3 l2.6 -3.4 2.4 2.3 c4.6 4.3 6.6 9.5 6.1 16.2 -0.4 5.1 -2 9.2 -9.1 24.4 -10.1 21.2 -28.4 58 -40 80.1 l-8 15.4 5.9 -0.6 c3.2 -0.4 11.8 -1.4 18.9 -2.2 25.9 -3 73.6 -2.9 90.5 0.2 3.3 0.6 3.4 0.5 2 -1.5 -34.9 -50.1 -55.5 -83.1 -57.6 -91.9 -2 -8.6 -0.2 -12.1 7.3 -14.7 4.2 -1.4 4.4 -1.4 3.8 0.2 -2.3 5.9 -1.9 7.3 7.2 21.7 19 29.9 31.1 47.4 53.6 77.7 l13.9 18.8 -3.2 5.5 c-1.7 3 -3.4 5.6 -3.8 5.9 -0.4 0.2 -7 -0.7 -14.7 -1.9 -44.5 -7.3 -87.7 -7.5 -113.5 -0.4 -16.5 4.5 -28.9 13 -34.2 23.3 l-2.4 4.8 -3.8 -13.1z"/>
  <path d="M382.5 157.1 c-9.5 -2.5 -19 -11.1 -22.1 -20.2 -2.7 -7.6 -2.4 -20.4 0.5 -28.1 2.7 -7 8.7 -13.2 16.1 -16.7 4.7 -2.2 6.9 -2.6 15 -2.6 8.1 0 10.3 0.4 15 2.6 10.4 4.9 16.8 14 18.5 26.6 1.3 9.9 2.7 9.3 -24.1 9.3 -25.9 0 -24.8 -0.3 -22 6.5 3.5 8.3 16.7 10.1 22.5 3.1 1.1 -1.3 3.5 -1.6 11.7 -1.6 l10.4 0 -2.4 4.8 c-5.5 10.7 -15 16.4 -28.1 16.8 -4.4 0.2 -9.3 0 -11 -0.5z m22.5 -41.6 c0 -0.9 -0.7 -2.9 -1.5 -4.5 -4.5 -8.7 -20.2 -7.7 -24.1 1.5 -0.8 1.9 -1.4 3.7 -1.4 4 0 0.3 6.1 0.5 13.5 0.5 11.5 0 13.5 -0.2 13.5 -1.5z"/>
  <path d="M538.4 156.4 c-5.8 -2.1 -12.9 -9.1 -16.2 -16.1 -2.4 -5.2 -2.7 -6.9 -2.7 -16.8 0 -9.8 0.3 -11.6 2.6 -16.5 3.5 -7.5 7.2 -11.6 13.3 -14.8 4.3 -2.2 6.4 -2.7 13.1 -2.7 6.7 0 8.7 0.4 12.3 2.4 2.3 1.4 4.9 3.5 5.7 4.8 2.3 3.5 3.5 2.8 3.5 -2.2 l0 -4.5 10 0 10 0 0 33.5 0 33.5 -10 0 -10 0 0 -4.5 c0 -2.5 -0.2 -4.5 -0.5 -4.5 -0.3 0 -1.9 1.4 -3.6 3.1 -6.4 6.5 -17.8 8.7 -27.5 5.3z m24.4 -18.1 c4.6 -3.4 6.3 -6.7 6.9 -12.9 0.4 -4.9 0 -6.7 -1.9 -10.3 -3.3 -6.3 -6.7 -8.5 -13.1 -8.5 -7.2 0 -11.4 2.6 -13.8 8.4 -4 10.1 -0.7 20.8 7.6 24.7 3.9 1.7 11 1.1 14.3 -1.4z"/>
  <path d="M669.8 157.3 c-1.7 -0.4 -1.8 -2.9 -1.8 -33.9 l0 -33.4 10 0 10 0 0 4.1 0 4.1 3.1 -2.6 c4.7 -4 8.2 -5.5 14.2 -6.2 8 -0.9 15.6 1.6 21.4 7.1 l4.6 4.4 4.9 -4.4 c13.9 -12.5 35.7 -8.5 42.9 7.7 2.2 5 2.3 6.8 2.7 28.9 l0.4 23.6 -3.2 0.7 c-4.1 0.8 -11.8 0.8 -14.7 0 -2.3 -0.6 -2.3 -0.8 -2.3 -19.3 0 -10.2 -0.5 -20.3 -1 -22.3 -0.6 -2 -2.4 -4.8 -4.1 -6.2 -2.5 -2.1 -4.1 -2.6 -8.8 -2.6 -6.3 0 -9.3 1.5 -11.6 6 -1.2 2.3 -1.5 7.2 -1.5 23.3 0 18.7 -0.2 20.5 -1.7 20.9 -3.1 0.8 -12.4 0.9 -15.4 0.3 l-2.9 -0.7 0 -19.4 c0 -21.3 -0.6 -24.4 -5.5 -28.2 -3.5 -2.8 -12.3 -3 -16.1 -0.6 -4.9 3.3 -5.4 5.7 -5.4 27.7 l0 20.4 -3.7 0.7 c-4.2 0.6 -11.8 0.6 -14.5 -0.1z"/>
  <path d="M799.8 157.3 l-2.8 -0.4 0 -33.5 0 -33.4 10 0 10 0 0 4 c0 2.2 0.2 4 0.4 4 0.3 0 2 -1.4 3.8 -3 9.3 -8.6 26.5 -7.3 36.1 2.6 l3.8 3.9 3.5 -3.8 c12.9 -13.6 36.1 -10.3 43.8 6.3 1.9 4.1 2.1 6.7 2.4 28.6 l0.4 24.1 -8.1 0.6 c-13.2 0.9 -12.1 2.7 -12.1 -20.5 0 -22.1 -0.7 -25.6 -6.1 -28.3 -3.6 -1.9 -11.2 -1.9 -14.8 0 -5.4 2.7 -6.1 6.2 -6.1 28.3 0 22.9 0.8 21.2 -10 21.2 -10.8 0 -10 1.7 -10 -21.7 0 -22.5 -0.5 -25 -6 -27.8 -3.8 -2 -11.5 -1.9 -14.9 0.1 -5.3 3.1 -5.6 4.3 -5.9 27 l-0.3 21.1 -4.6 0.7 c-4.7 0.6 -7.8 0.6 -12.5 -0.1z"/>
  <path d="M943.5 155.7 c-11.5 -4.6 -18.3 -13.1 -20.5 -25.9 -2.1 -11.8 2 -25.1 9.9 -32 13.3 -11.7 35.5 -11.6 48.4 0.2 8 7.3 10.2 12.8 10.2 25.5 0 12.3 -2.3 18.1 -9.6 25 -7 6.6 -12.5 8.7 -23.4 9.2 -7.6 0.3 -9.9 0 -15 -2z m20.5 -16.6 c5.3 -2.8 8.2 -9.1 7.8 -16.8 -0.4 -7 -2.3 -10.3 -7.9 -14.1 -6.3 -4.4 -15.4 -1.5 -19.1 5.9 -2.5 4.9 -2.4 15.4 0.2 19.7 4.1 6.7 12.2 9 19 5.3z"/>
  <path d="M274 114.5 l0 -42.5 16.3 0 c8.9 0 19.4 0.5 23.2 1 19.3 2.8 32.8 16.1 35.5 35 2.6 18.2 -5.3 35.5 -19.6 43.2 -9 4.8 -15 5.8 -36.1 5.8 l-19.3 0 0 -42.5z m39.8 24 c9.7 -2.9 15.1 -11.1 15.2 -22.9 0 -8.8 -1.5 -13.6 -5.7 -18.5 -4.6 -5.4 -10.6 -7.6 -21.3 -7.6 l-8.5 0 -0.1 24.5 c0 13.5 0.1 24.8 0.3 25.3 0.7 1.3 14.8 0.7 20.1 -0.8z"/>
  <path d="M437.9 156.6 c-0.2 -0.2 -0.3 -20.3 -0.1 -44.5 l0.2 -44.1 9.5 0 9.5 0 0 44.5 0 44.5 -9.3 0 c-5.2 0 -9.6 -0.2 -9.8 -0.4z"/>
  <path d="M490 155.7 c-4.6 -1.5 -10.6 -7.7 -11.9 -12.4 -0.6 -2.1 -1.1 -11.3 -1.1 -20.5 l0 -16.8 -4 0 -4 0 0 -8 0 -8 4 0 4 0 0 -8.5 0 -8.5 10 0 10 0 0 8.5 0 8.4 6.8 0.3 6.7 0.3 0.3 7.8 0.3 7.7 -7.1 0 -7 0 0 15.9 c0 11.7 0.3 16.1 1.3 16.9 0.7 0.6 3.7 1.2 6.7 1.4 l5.5 0.3 0.3 8.3 0.3 8.2 -8.8 -0.1 c-4.8 -0.1 -10.4 -0.6 -12.3 -1.2z"/>
  <path d="M632 114.5 l0 -42.5 10 0 10 0 0 42.5 0 42.5 -10 0 -10 0 0 -42.5z"/>
 </g>
 <g fill="#ffffff">
  <path d="M673.8 157.3 c1.7 -0.2 4.7 -0.2 6.5 0 1.7 0.2 0.3 0.4 -3.3 0.4 -3.6 0 -5 -0.2 -3.2 -0.4z"/>
  <path d="M720.8 157.3 c1.8 -0.2 4.5 -0.2 6 0 1.5 0.2 0 0.4 -3.3 0.4 -3.3 0 -4.5 -0.2 -2.7 -0.4z"/>
  <path d="M767.7 157.3 c1.8 -0.2 5 -0.2 7 0 2.1 0.2 0.7 0.4 -3.2 0.4 -3.8 0 -5.5 -0.2 -3.8 -0.4z"/>
  <path d="M804.3 157.3 c1.5 -0.2 3.7 -0.2 5 0 1.2 0.2 0 0.4 -2.8 0.4 -2.7 0 -3.8 -0.2 -2.2 -0.4z"/>
  <path d="M850.3 157.3 c2 -0.2 5.4 -0.2 7.5 0 2 0.2 0.3 0.4 -3.8 0.4 -4.1 0 -5.8 -0.2 -3.7 -0.4z"/>
 </g>
</svg>