<?xml version="1.0" encoding="UTF-8"?>
<!DOCTYPE svg PUBLIC "-//W3C//DTD SVG 1.1//EN" "http://www.w3.org/Graphics/SVG/1.1/DTD/svg11.dtd">
<svg xmlns="http://www.w3.org/2000/svg" version="1.1" width="300px" height="202px" style="shape-rendering:geometricPrecision; text-rendering:geometricPrecision; image-rendering:optimizeQuality; fill-rule:evenodd; clip-rule:evenodd" xmlns:xlink="http://www.w3.org/1999/xlink">
<g><path fill="#da3922" fill-opacity="0.875" d="M 218.12,18.66 c 3.23,1.36 6.29,3.05 9.17,5.06 c 0.04,0.61 0.35,0.83 0.95,0.64 c 1.71,1.23 3.2,2.69 4.46,4.38 c -0.17,0.6 0.05,0.89 0.67,0.88 c 0.96,1.35 2.23,2.29 3.79,2.83 c -0.37,1.15 -1.17,1.74 -2.39,1.74 c -2.53,-2.61 -5.13,-5.16 -7.81,-7.63 c -3.44,-2.55 -7.14,-4.61 -11.11,-6.18 c 0.47,-0.95 1.23,-1.52 2.27,-1.72 Z M 81.92,34.97 c 0.06,0.19 0.13,0.38 0.19,0.57 c -0.5,1.02 -1.21,1.85 -2.13,2.48 c -0.12,-1.13 -0.07,-2.25 0.14,-3.37 c 0.67,-0.72 1.08,0.13 1.8,0.32 Z M 270.8,130.5 c -0.84,0.51 -1.56,1.14 -2.17,1.9 c -3,-6.11 1.71,-18.19 8.83,-19.61 c 1.37,0.1 5.65,-1.74 6.27,-0.05 c -0.13,1.26 -0.04,2.51 0.25,3.72 c 0.51,0.84 1.19,1.48 2.06,1.92 c 2.8,0.43 5.58,0.91 8.34,1.45 c 1.74,-0.77 3.06,-8.09 -2.02,-6.12 c -5.56,-1.12 -2.15,-8.32 -0.32,-11.28 c -0.07,-2.23 0.55,-4.24 1.87,-6.04 c 0.9,-3.23 1.28,-6.52 1.15,-9.86 c -1.35,-1.31 -2.68,-2.65 -4.02,-4.02 c -1.03,-0.84 -1.93,-0.73 -2.7,0.35 c -1.1,3 -1.65,4.6 -4.77,5.7 c -0.2,-1.11 -0.04,-2.18 0.47,-3.21 c 0.27,0.15 0.51,0.1 0.72,-0.15 c 1.26,-2.91 3.47,-8.45 7.46,-5.01 c 1.05,1.65 2.43,2.94 4.15,3.87 c 3.65,3.86 -1.5,14.39 -1.88,19.06 c -0.98,1.11 -3.52,6.02 -2.48,7.32 c 1.82,1.02 4.4,0.24 5.56,2.4 c 1.18,2.97 0.77,8.24 -2.49,9.72 c -1.57,-0.37 -3.11,-0.85 -4.62,-1.43 c -4.26,1.15 -5.06,-0.2 -8.56,-2.49 c -0.45,-1.24 -0.93,-2.46 -1.44,-3.65 c -6.72,-0.41 -10.48,6.64 -10.52,12.52 c 0,1.08 0.29,2.08 0.86,2.99 Z M 257.95,83.05 c 0.74,0 1.49,-0.01 2.24,-0.06 c 0,0.9 0.17,1.76 0.49,2.6 c -0.82,0.47 -1.51,1.07 -2.08,1.82 c -0.91,-1.35 -1.13,-2.8 -0.65,-4.36 Z M 265.74,90.76 c 0.59,-0.26 0.92,-0.07 0.98,0.57 c -0.32,-0.19 -0.65,-0.38 -0.98,-0.57 Z M 274.82,135.92 c 0.57,0.35 1.07,0.77 1.51,1.27 c -0.67,1.36 -1.06,2.78 -1.19,4.27 c 1.12,2.08 2.28,4.13 3.48,6.16 c -0.43,1.62 -1.39,2.86 -2.88,3.72 c -1.8,1.12 -3.72,1.46 -5.75,0.99 c -1.66,-2.79 -3.43,-5.54 -5.34,-8.26 c 0.66,-0.59 1.39,-1.06 2.19,-1.41 c 0.71,2.33 1.89,3.09 3.24,4.92 c 0.06,2.32 1.19,3.09 3.39,2.32 c 0.83,-0.17 1.34,-0.65 1.55,-1.44 c 2.24,0.52 2.35,-1.06 0.19,-1.34 c -2.76,-4.93 -4.27,-6.47 -0.39,-11.2 Z M 219.67,141.94 c 0.73,0.25 1.37,0.63 1.94,1.15 c -3.37,6.86 -6.43,12.49 -12.69,17.1 c -1.47,4.16 -1.42,5.35 -5.05,8.33 c -0.68,-0.34 -2.3,-1.25 -1.51,-2.22 c 0.42,-0.3 0.85,-0.59 1.28,-0.86 c 0.71,0.16 0.99,-0.12 0.84,-0.85 c 1,-1.72 1.78,-3.55 2.34,-5.47 c 5.98,-5.55 9.52,-9.41 12.85,-17.18 Z M 141.99,147.74 c 2.02,4.1 3.97,7.88 -0.31,11.43 c -1.62,1.08 -3.29,2.07 -5.03,2.95 c -0.98,2.1 -1.78,4.27 -2.41,6.52 c -0.51,0.86 -1.19,1.54 -2.05,2.05 c -0.61,-0.68 -1.11,-1.43 -1.51,-2.25 c 0.66,-0.31 1.22,-0.74 1.68,-1.28 c 0.55,-2.11 1.25,-4.17 2.11,-6.17 c 1.73,-1.33 3.59,-2.48 5.55,-3.47 c 4.11,-2.85 0.98,-6.37 -1.06,-9.23 c 0.18,-1.68 2.04,-0.5 3.03,-0.55 Z"/></g>
<g><path fill="#d83a24" fill-opacity="0.961" stroke="#d83a24" stroke-width="0.5" stroke-opacity="0.961" d="M 164.74,45 c -0.5,-6.37 7.5,-8.22 10.76,-3.1 c 2.1,4.24 -2.54,9.19 -4.39,12.78 c -0.75,0.43 -1.38,0.3 -1.91,-0.39 c -1.31,-2.86 -4.2,-6.14 -4.46,-9.29 Z M 168.25,44.07 c 0.26,2.18 1.4,2.85 3.41,2.03 c 2.64,-3.01 -2.16,-5.46 -3.41,-2.03 Z M 84.04,61 c -0.03,-6.09 7.17,-7.74 10.65,-3.22 c 2.11,5.02 -2.15,9.62 -4.66,13.59 c -0.31,0.25 -0.61,0.24 -0.91,-0.04 c -1.44,-2.88 -4.91,-7.12 -5.08,-10.33 Z M 87.74,61.07 c 1.56,4.35 6.6,-0.49 2.89,-2.24 c -1.84,-0.42 -2.81,0.33 -2.89,2.24 Z M 157.2,80.95 c 1.02,-9.2 13.55,-6.39 11.14,1.74 c -1.43,3.11 -3.16,6.04 -5.18,8.78 c -0.38,0.21 -0.71,0.15 -0.98,-0.19 c -1.42,-3.23 -4.64,-6.81 -4.98,-10.33 Z M 160.92,81.02 c 0.76,3.47 5.92,1.55 3.37,-1.85 c -1.94,-0.78 -3.06,-0.16 -3.37,1.85 Z M 85.91,148 c 0.09,-6.01 7.2,-7.73 10.66,-3.14 c 2.18,4.56 -2.03,9.84 -4.5,13.54 c -0.33,0.21 -0.65,0.19 -0.96,-0.06 c -1.68,-2.61 -5.01,-7.3 -5.2,-10.34 Z M 89.49,147.94 c 0.61,1.84 1.78,2.33 3.51,1.5 c 3.01,-4.02 -3.45,-4.93 -3.51,-1.5 Z"/></g>
<g><path fill="#da3922" fill-opacity="0.894" d="M 211.2,16.48 c 0.29,0.08 0.58,0.16 0.87,0.25 c 0.42,1.07 1.15,1.29 2.17,0.66 c -0.16,0.88 -0.62,1.53 -1.39,1.96 c -0.99,-0.31 -1.99,-0.61 -2.99,-0.89 c 0.33,-0.74 0.77,-1.4 1.34,-1.98 Z M 144.07,24.15 c 0.27,-0.14 0.53,-0.29 0.8,-0.43 c 0.93,0.22 1.68,0.71 2.23,1.48 c -1.08,-0.32 -1.75,0.04 -2,1.11 c -0.26,0.13 -0.53,0.26 -0.8,0.4 c -0.54,-0.22 -0.89,-0.06 -1.05,0.48 c -0.53,0 -0.99,0.18 -1.36,0.56 c -0.87,0.32 -1.77,0.58 -2.68,0.78 c -1.04,-0.79 -4.05,-0.17 -4.22,-1.68 c 0.93,-0.09 1.86,-0.22 2.78,-0.38 c 1.17,0.64 3,1.01 3.11,-0.87 c 0.63,-0.25 1.25,-0.51 1.86,-0.79 c 0.65,0.15 1.09,-0.07 1.33,-0.66 Z M 94.94,35.6 c 1,0.38 1.83,0.99 2.49,1.82 c -0.71,0.59 -1.45,1.14 -2.23,1.66 c -1.22,0.03 -2.04,-0.54 -2.46,-1.69 c 0.27,-0.11 0.53,-0.23 0.79,-0.35 c 0.92,0.51 1.22,0.25 0.88,-0.77 c 0.75,0.19 0.92,-0.03 0.53,-0.67 Z M 257.81,136.49 c 0.56,0.58 1,1.24 1.32,1.98 c -2.81,0.98 -5.64,1.89 -8.49,2.74 c -1.03,1.37 -2.21,2.64 -3.53,3.8 c -1.16,0.06 -1.93,-0.45 -2.33,-1.53 c 2.37,-1.18 2.63,-2.09 4.08,-4.07 c 3.05,-0.76 6.04,-1.73 8.95,-2.92 Z M 161.53,139.88 c 0.81,0.1 1.39,0.51 1.76,1.23 c -0.62,1.57 -0.86,3.19 -0.71,4.86 c -0.67,0.4 -1.35,0.8 -2.03,1.19 c -0.07,-0.36 -0.15,-0.73 -0.23,-1.1 c 0.58,-0.99 0.7,-2.03 0.37,-3.13 c 0.09,-0.34 0.18,-0.68 0.27,-1.02 c 0.44,-0.27 0.56,-0.64 0.34,-1.12 c 0.08,-0.3 0.16,-0.61 0.23,-0.91 Z M 119.2,175.14 c 0.63,0.11 1.25,0.17 1.89,0.19 c -0.3,0.88 -0.74,1.68 -1.33,2.4 c -0.29,-0.04 -0.57,-0.07 -0.86,-0.11 c 0.07,-1.28 -1.1,-1.22 -1.65,-2.05 c 0.57,-0.43 1.23,-0.58 1.95,-0.43 Z M 84.93,176.93 c 0.3,-0.12 0.6,-0.25 0.9,-0.38 c 0.59,0.62 1.04,1.32 1.35,2.12 c -0.65,0.11 -1.28,0.3 -1.88,0.59 c -0.68,-0.16 -1.1,0.09 -1.27,0.74 c -0.27,0.18 -0.55,0.35 -0.82,0.52 c -0.67,-0.3 -1.02,-0.1 -1.07,0.6 c -0.7,-0.49 -1.18,-1.14 -1.43,-1.96 c 0.33,-0.13 0.65,-0.27 0.97,-0.42 c 0.58,-0.03 1.03,-0.28 1.36,-0.75 c 0.25,-0.14 0.5,-0.29 0.75,-0.43 c 0.52,0.03 0.9,-0.18 1.14,-0.63 Z M 198.27,186.92 c 0.46,0.36 0.98,0.48 1.55,0.35 c -0.12,0.78 -0.4,1.5 -0.86,2.15 c -0.33,-0.09 -0.67,-0.17 -1,-0.26 c -0.23,-0.49 -0.62,-0.68 -1.16,-0.58 c 0.28,-0.75 0.77,-1.3 1.47,-1.66 Z"/></g>
<g><path fill="#da3922" fill-opacity="0.898" d="M 43.27,124.23 c 0.59,0.08 1.18,0.17 1.76,0.26 c -0.17,1.65 -2.02,1.56 -3.21,1.94 c -0.31,0 -0.63,-0.01 -0.94,-0.01 c 0.6,-0.94 1.4,-1.67 2.39,-2.19 Z M 233.35,133.91 c 1.14,4.28 2.82,8.99 7.83,9.72 c -0.4,0.75 -0.87,1.45 -1.41,2.1 c -4.6,-0.85 -6.51,-4.44 -7.94,-8.48 c 0.11,-1.08 -0.25,-3.54 1.52,-3.34 Z"/></g>
<g><path fill="#da3922" fill-opacity="0.886" d="M 11.84,119.95 c 0.66,0.32 1.17,0.8 1.54,1.43 c -0.56,0.46 -1.02,1.01 -1.37,1.64 c -0.46,0.24 -0.68,0.63 -0.66,1.15 c -0.14,0.26 -0.27,0.51 -0.41,0.76 c -0.48,0.3 -0.65,0.71 -0.5,1.26 c -0.01,0.31 -0.01,0.63 -0.02,0.94 c -1.2,-0.24 -1.77,-1 -1.71,-2.27 c 0.12,-0.26 0.25,-0.52 0.37,-0.78 c 0.38,-0.36 0.62,-0.8 0.72,-1.31 c 0.84,-0.83 1.52,-1.76 2.04,-2.82 Z M 12.42,135.77 c 0.86,0.14 1.45,0.61 1.76,1.42 c -0.8,0.89 -1.53,1.82 -2.21,2.8 c -0.38,0.24 -0.62,0.57 -0.74,0.99 c -0.05,0.68 -0.1,1.36 -0.14,2.04 c -0.8,-0.45 -1.26,-1.13 -1.36,-2.06 c -0.04,-1.75 1.46,-2.66 2.18,-4.06 c 0.55,-0.2 0.72,-0.58 0.51,-1.13 Z"/></g>
<g><path fill="#da3922" fill-opacity="0.941" d="M 5,154.02 c 0.28,-0.12 0.56,-0.23 0.84,-0.35 c 1.12,0.39 2.24,0.41 3.38,0.08 c 0.28,0.01 0.56,0.02 0.85,0.03 c -0.58,0.83 -1.29,1.54 -2.12,2.13 c -0.29,0.02 -0.57,0.03 -0.85,0.05 c -0.43,-0.44 -0.79,-0.41 -1.1,0.09 c -0.61,0.1 -1.22,0.22 -1.82,0.38 c 0.12,-0.86 0.39,-1.66 0.82,-2.41 Z"/></g>
<g><path fill="#da3922" fill-opacity="0.91" d="M 203.43,170.76 c -0.07,0.48 -0.13,0.97 -0.2,1.46 c -0.51,0.53 -0.89,1.14 -1.16,1.82 c -0.49,-0.35 -0.96,-0.72 -1.4,-1.12 c 0.09,-0.32 0.17,-0.64 0.25,-0.96 c 0.86,-0.36 1.69,-0.76 2.51,-1.2 Z"/></g>
<g><path fill="#da3922" fill-opacity="0.882" d="M 211.2,16.48 c -0.57,0.58 -1.01,1.24 -1.34,1.98 c -1.42,-0.45 -2.87,-0.62 -4.36,-0.51 c -2.96,0.93 -5.97,1.64 -9.02,2.16 c -1.34,-0.13 -2.5,-0.66 -3.48,-1.58 c -0.87,-1.34 -1.77,-2.65 -2.68,-3.92 c -1.32,-0.81 -0.85,1.49 -1.89,1.92 c -1.61,-0.33 -3.23,-0.54 -4.87,-0.62 c -4.45,-1.67 1.67,-5.7 -2.96,-7.63 c -5.35,2.58 -3.92,-2.7 -5.95,-1.89 c -1.73,1.42 -3.7,2.39 -5.89,2.9 c -0.78,1.25 -1.48,2.55 -2.09,3.91 c -0.52,0.77 -2.2,1.23 -2.08,2.29 c 0.51,1.5 1.54,2.48 3.08,2.94 c 1.52,-0.72 3.13,-1.21 4.82,-1.45 c 5.5,-1.02 5.46,4.42 2.57,7.36 c -1.32,0.27 -2.36,-0.18 -3.13,-1.34 c -2.83,-1.02 -2.92,1.38 -3.01,3.39 c -0.63,0.7 -1.43,1.03 -2.4,0.98 c -5.47,0.28 -8.63,0.21 -13.04,-3.19 c -2.39,-1.38 -4.19,0.02 -6.38,1.02 c -0.55,-0.77 -1.3,-1.26 -2.23,-1.48 c 2.65,-1.56 6.84,-3.98 9.81,-1.88 c 3.89,3.25 5.38,3.69 10.76,3.12 c 0.45,-0.9 0.88,-1.81 1.3,-2.74 c 1.03,-0.58 2.04,-1.2 3.02,-1.87 c -1.09,-0.03 -2.19,-0.06 -3.31,-0.07 c -2.9,-1 -5.74,-3.73 -3.79,-6.96 c 2.18,-1.79 2.75,-2.89 4.03,-5.19 c 2.78,-1.46 5.41,-3.13 7.89,-5 c 1.96,-0.32 2.56,1.71 4.96,1.09 c 2.78,1.05 4.75,2.95 5.89,5.7 c 0.53,3.12 -0.43,4.16 3.06,1.97 c 3.55,-0.77 4.93,3.64 7.31,5.36 c 4.16,1.51 8.5,-4.18 15.4,-0.77 Z M 212.07,16.73 c 0.72,0.21 1.45,0.43 2.17,0.66 c -1.02,0.63 -1.75,0.41 -2.17,-0.66 Z M 214.24,17.39 c 1.3,0.4 2.6,0.82 3.88,1.27 c -1.04,0.2 -1.8,0.77 -2.27,1.72 c -1,-0.36 -2,-0.7 -3,-1.03 c 0.77,-0.43 1.23,-1.08 1.39,-1.96 Z M 172.11,19.92 c 0.1,1.19 1.43,2.21 2.35,1.2 c 0.94,-2.78 -2.35,-2.14 -2.35,-1.2 Z M 134.99,26.85 c 0.17,1.51 3.18,0.89 4.22,1.68 c -2.43,0.24 -7.47,1.65 -9.53,0.14 c -1.17,-0.91 -2.24,-1.91 -3.21,-2.99 c -1.87,1.31 -3.84,2.46 -5.9,3.47 c -2.85,1.02 -6.92,1.4 -9.02,-1.22 c -0.56,-1.19 -0.21,-1.99 1.04,-2.41 c -3.12,-0.62 -7.19,0.58 -9.19,3.21 c -0.54,5.5 -2.09,5.52 -5.97,8.69 c -0.66,-0.83 -1.49,-1.44 -2.49,-1.82 c 0.22,-1.06 0.61,-2.04 1.18,-2.95 c 1.33,-0.52 2.72,-0.8 4.17,-0.81 c -0.19,-0.74 -0.38,-1.52 -0.55,-2.34 c 0.09,-0.86 0.46,-1.59 1.12,-2.16 c 3.4,-2.98 4.97,-4.47 9.61,-4.47 c 1.57,-0.88 3.24,-1.19 4.99,-0.94 c 2.41,1.71 -1.71,5.27 0.96,5.26 c 3.55,0.3 5.21,-1.24 7.59,-3.44 c 2.64,-1.87 5.26,0.77 6.89,2.66 c 1.34,0.32 2.7,0.46 4.09,0.44 Z M 144.07,24.15 c -0.24,0.59 -0.68,0.81 -1.33,0.66 c 0.45,-0.22 0.89,-0.44 1.33,-0.66 Z M 227.29,23.72 c 0.31,0.21 0.63,0.42 0.95,0.64 c -0.6,0.19 -0.91,-0.03 -0.95,-0.64 Z M 147.1,25.2 c -0.66,0.37 -1.33,0.74 -2,1.11 c 0.25,-1.07 0.92,-1.43 2,-1.11 Z M 140.88,25.6 c -0.11,1.88 -1.94,1.51 -3.11,0.87 c 1.06,-0.22 2.09,-0.51 3.11,-0.87 Z M 144.3,26.71 c -0.35,0.16 -0.7,0.32 -1.05,0.48 c 0.16,-0.54 0.51,-0.7 1.05,-0.48 Z M 143.25,27.19 c -0.45,0.19 -0.9,0.38 -1.36,0.56 c 0.37,-0.38 0.83,-0.56 1.36,-0.56 Z M 232.7,28.74 c 0.23,0.29 0.45,0.58 0.67,0.88 c -0.62,0.01 -0.84,-0.28 -0.67,-0.88 Z M 81.92,34.97 c -0.72,-0.19 -1.13,-1.04 -1.8,-0.32 c -0.21,1.12 -0.26,2.24 -0.14,3.37 c -1.76,-1.52 -0.1,-3.69 -1.66,-4.77 c -1.56,0.51 -3.17,0.78 -4.82,0.8 c -1.35,-0.44 -2.62,-1.01 -3.81,-1.71 c -0.14,1.68 -0.39,3.34 -0.75,5.01 c -0.81,0.53 -1.63,1.06 -2.46,1.58 c -1.08,2.37 -2.3,3.01 -4.13,4.7 c 0.23,0.38 0.58,0.58 1.06,0.6 c 2.64,-0.17 5.27,-0.19 7.9,-0.04 c 3.66,2.41 -0.28,5.61 -1.92,7.78 c -1.12,0.5 -2.19,1.06 -3.21,1.69 c -0.28,4.06 -2.35,5.26 -5.08,7.88 c -2.35,3.72 -3.26,5.01 -7.45,6.78 c -1.13,1.5 -2.46,2.8 -3.99,3.9 c 0.83,3.94 -3.6,5.72 -6.22,7.71 c -2.47,0.52 -4.9,1.13 -7.28,1.84 c -2.68,3.73 -1.5,3.49 -0.85,7.72 c 0.06,1.76 -1.4,2.66 -1.93,4.13 c 0.25,1.29 0.48,2.59 0.69,3.89 c -0.41,4.07 -17.41,12.34 -20.38,18.41 c -0.03,1.82 1.23,3.87 -0.31,5.46 c -0.37,-0.63 -0.88,-1.11 -1.54,-1.43 c -0.12,-1.96 -2.01,-4.01 -0.02,-5.68 c 2.81,-2.83 5.67,-5.6 8.59,-8.32 c 4.25,-2.57 7.47,-4.27 10.94,-7.97 c 0.01,-1.42 -0.02,-2.86 -0.1,-4.31 c 0.69,-1.34 1.22,-2.73 1.61,-4.18 c -1.52,-5.69 -1.27,-5.85 2.95,-10.13 c 5.16,-1.81 7.61,-0.68 11.48,-5.41 c -0.37,-4.27 2.77,-4.41 4.73,-7.35 c 6.15,-2.33 6.56,-7.01 11.44,-10.55 c 0.88,-4.03 -0.04,-4.33 4.12,-5.88 c 0.71,-0.68 1.37,-1.42 1.96,-2.2 c 0.53,-0.63 0.47,-1.15 -0.18,-1.56 c -1.61,0.37 -3.24,0.59 -4.9,0.64 c -1.03,-0.13 -3.73,-0.71 -4.2,-1.75 c 0.66,-4.32 2.99,-6.58 6.1,-9.39 c 0.98,-1.7 0.56,-4.57 3.19,-4.88 c 3.25,0.26 6.52,0.33 9.78,0.23 c 2.44,0.7 2.5,1.27 2.59,3.71 Z M 237.16,32.45 c 4.02,0.71 7.61,1.17 8.35,5.97 c 2.09,6.7 -1.94,7.85 -5.29,12.36 c -5.48,7.7 -6.52,9.54 -3.66,18.91 c 0.05,1.24 -0.07,2.45 -0.38,3.65 c 0.32,0.43 0.76,0.64 1.31,0.62 c 8.28,-0.28 12.17,1 19.84,3.34 c 3.06,0.86 3.06,2.89 2.86,5.69 c -0.75,0.05 -1.5,0.06 -2.24,0.06 c 1.64,-3.44 -0.12,-2.89 -2.98,-3.54 c -5.7,-2.29 -9.18,-4.22 -15.45,-2.68 c -2,-0.57 -4.03,-0.73 -6.1,-0.47 c -3.08,-0.43 -0.64,-2.88 0.23,-4.05 c 2.25,-3.6 -2.97,-9.01 -0.22,-14.36 c 2.39,-4.86 5.63,-10.44 9.79,-13.98 c 3.41,-7.76 -3.57,-7.8 -8.45,-9.78 c 1.22,0 2.02,-0.59 2.39,-1.74 Z M 82.11,35.54 c 0.55,1.09 1.42,1.76 2.6,2.02 c 2.68,0.27 5.36,0.22 8.03,-0.17 c 0.42,1.15 1.24,1.72 2.46,1.69 c -3.46,1.4 -12.39,2.61 -15.22,-1.06 c 0.92,-0.63 1.63,-1.46 2.13,-2.48 Z M 94.94,35.6 c 0.39,0.64 0.22,0.86 -0.53,0.67 c 0.18,-0.22 0.36,-0.45 0.53,-0.67 Z M 94.41,36.27 c 0.34,1.02 0.04,1.28 -0.88,0.77 c 0.31,-0.24 0.6,-0.49 0.88,-0.77 Z M 284.04,85.35 c -0.51,1.03 -0.67,2.1 -0.47,3.21 c -0.85,1 -1.53,2.14 -2.06,3.42 c -5.09,5.74 -10.02,3.87 -14.79,-0.65 c -0.06,-0.64 -0.39,-0.83 -0.98,-0.57 c -2.2,-1.2 -5.48,-1.37 -7.14,-3.35 c 0.57,-0.75 1.26,-1.35 2.08,-1.82 c 1.29,2.03 4.91,2.11 6.86,3.45 c 3.65,2.72 7.83,6.59 11.9,1.88 c 0.78,-1.58 1.55,-3.16 2.32,-4.76 c 0.64,-0.59 1.4,-0.86 2.28,-0.81 Z M 9.8,122.77 c -0.1,0.51 -0.34,0.95 -0.72,1.31 c 0.21,-0.45 0.45,-0.89 0.72,-1.31 Z M 12.01,123.02 c -0.22,0.38 -0.44,0.77 -0.66,1.15 c -0.02,-0.52 0.2,-0.91 0.66,-1.15 Z M 43.27,124.23 c -0.99,0.52 -1.79,1.25 -2.39,2.19 c -3.07,-0.07 -5.48,1.86 -8.2,2.92 c -1.6,0.49 -3.21,0.92 -4.84,1.31 c -3.07,1.68 -9.7,7.22 -7.97,11.19 c 3.45,1.88 6.49,4.32 1.71,7.31 c -1.53,0.73 -2.97,1.59 -4.34,2.59 c -2.86,4.23 -4.35,4.3 -9.29,4.17 c 0.83,-0.59 1.54,-1.3 2.12,-2.13 c 0.97,-0.1 1.93,-0.3 2.86,-0.6 c 2.36,-2.65 3.8,-5.35 7.68,-6.04 c 0.6,-0.2 1.63,-1.21 0.69,-1.71 c -8.14,-1.78 -2.04,-11.65 2.1,-14.54 c 3.3,-2.36 15.6,-7.72 19.87,-6.66 Z M 233.35,133.91 c -1.77,-0.2 -1.41,2.26 -1.52,3.34 c -1.38,-3.03 -0.57,-5.5 -0.99,-8.57 c -0.77,-0.79 -1.74,0.89 -2.7,0.7 c -0.86,-0.49 -1.72,-0.98 -2.58,-1.49 c -1.3,-1.77 -2.68,-1.84 -4.15,-0.18 c -1.78,4.89 0.25,6.95 0.73,11.77 c 0.05,1.24 -0.13,2.44 -0.53,3.61 c -0.57,-0.52 -1.21,-0.9 -1.94,-1.15 c 1.24,-3.55 -1.44,-7.02 -1.92,-10.44 c 1.07,-3.37 2.62,-8.79 7.32,-7.21 c 1.16,0.66 2.29,1.33 3.39,2.01 c 1.08,-0.79 2.23,-1.81 3.71,-1.05 c 1.25,2.7 0.66,5.77 1.18,8.66 Z M 8.71,124.86 c -0.06,1.27 0.51,2.03 1.71,2.27 c -0.79,3.9 0.27,3.18 2.94,4.93 c 1.79,1.47 2.06,3.18 0.82,5.13 c -0.31,-0.81 -0.9,-1.28 -1.76,-1.42 c 0.28,-3.13 -3.31,-2.2 -4.36,-4.33 c -0.39,-2.25 -0.17,-4.44 0.65,-6.58 Z M 10.94,124.93 c -0.17,0.42 -0.33,0.84 -0.5,1.26 c -0.15,-0.55 0.02,-0.96 0.5,-1.26 Z M 45.03,124.49 c 3.75,0.5 7.27,1.65 10.57,3.46 c 3.2,1.93 0.8,5.73 0.72,8.48 c 0.81,1.73 1.67,3.43 2.61,5.1 c 1.73,3.61 -3.96,9.25 -3.58,13.68 c 1.08,1.78 5.44,0.26 6.26,3.7 c -0.2,1.15 -0.35,2.3 -0.44,3.46 c 0.91,0.48 1.89,0.84 2.94,1.06 c 6.87,3.94 6.25,20.57 16.6,15.73 c 0.25,0.82 0.73,1.47 1.43,1.96 c -2.59,1.4 -5.31,1.78 -8.17,1.13 c -2.15,-1.86 -3.84,-4.1 -5.05,-6.7 c -1.09,-2.55 -2.22,-5.07 -3.4,-7.57 c -1.88,-2.09 -3.09,-2.17 -5.74,-2.41 c -2.59,-1.82 -1.27,-3.78 -0.16,-6.14 c -1.71,-0.34 -3.37,-0.84 -4.98,-1.52 c -4.86,-5.82 4.05,-11.34 1.87,-16.22 c -1.06,-1.73 -2.08,-3.48 -3.05,-5.23 c 0.65,-1.9 1.07,-3.84 1.26,-5.81 c -1.03,-1.05 -2.25,-1.82 -3.67,-2.31 c -3.01,-0.95 -6.09,-1.59 -9.23,-1.91 c 1.19,-0.38 3.04,-0.29 3.21,-1.94 Z M 163.29,141.11 c -0.37,-0.72 -0.95,-1.13 -1.76,-1.23 c 0.48,-3.05 0.55,-6.11 0.22,-9.19 c -0.94,-2.06 -5.77,0.61 -6.99,1.48 c -0.07,0.75 -0.02,1.51 0.14,2.29 c 0.28,2.45 -6.2,6.25 -7.53,8.34 c -1.65,0.88 -3.36,1.59 -5.13,2.13 c -0.71,0.88 -0.79,1.81 -0.25,2.81 c -0.99,0.05 -2.85,-1.13 -3.03,0.55 c -1.31,-2.27 -0.74,-3.97 1.7,-5.09 c 4.6,-1.61 8.36,-4.39 11.26,-8.33 c 0.32,-3.57 2.21,-5.86 5.67,-6.88 c 1.65,-0.6 3.28,-0.58 4.88,0.07 c 2.62,1.56 1.79,10.48 0.82,13.05 Z M 270.8,130.5 c 2.07,1 4.13,2.05 6.15,3.15 c 0.21,1.24 0,2.42 -0.62,3.54 c -0.44,-0.5 -0.94,-0.92 -1.51,-1.27 c -0.4,-0.64 -0.88,-1.2 -1.46,-1.66 c -1.88,0.13 -3.46,-0.49 -4.73,-1.86 c 0.61,-0.76 1.33,-1.39 2.17,-1.9 Z M 12.42,135.77 c 0.21,0.55 0.04,0.93 -0.51,1.13 c 0.17,-0.38 0.34,-0.75 0.51,-1.13 Z M 266.84,142.66 c -0.8,0.35 -1.53,0.82 -2.19,1.41 c -1.03,-3.03 -0.94,-7.01 -5.52,-5.6 c -0.32,-0.74 -0.76,-1.4 -1.32,-1.98 c 3.31,-1.46 5.97,-0.73 7.99,2.18 c 0.38,1.32 0.73,2.65 1.04,3.99 Z M 11.97,139.99 c -0.17,0.39 -0.42,0.72 -0.74,0.99 c 0.12,-0.42 0.36,-0.75 0.74,-0.99 Z M 9.73,140.96 c 0.1,0.93 0.56,1.61 1.36,2.06 c 0.55,5.6 -6.69,3.35 -7.86,5.64 c 0.29,0.94 0.61,1.87 0.94,2.81 c 0.06,0.69 -0.61,2.81 0.83,2.55 c -0.43,0.75 -0.7,1.55 -0.82,2.41 c -3.43,1.53 -3,-1.84 -2.52,-3.94 c -0.51,-1.29 -0.84,-2.62 -0.99,-4 c 0.76,-3.36 4.96,-3.18 7.58,-3.78 c 0.53,-1.24 1.03,-2.49 1.48,-3.75 Z M 161.3,140.79 c 0.22,0.48 0.1,0.85 -0.34,1.12 c 0.1,-0.38 0.22,-0.75 0.34,-1.12 Z M 160.69,142.93 c 0.33,1.1 0.21,2.14 -0.37,3.13 c -0.03,-1.06 0.1,-2.11 0.37,-3.13 Z M 241.18,143.63 c 1.21,0.2 2.41,0.15 3.6,-0.15 c 0.4,1.08 1.17,1.59 2.33,1.53 c -2.31,1.36 -4.76,1.6 -7.34,0.72 c 0.54,-0.65 1.01,-1.35 1.41,-2.1 Z M 162.58,145.97 c 1.11,2.81 4.57,4.19 6.52,6.43 c 1.78,2.52 3.76,4.87 5.93,7.05 c 0.84,0.5 1.75,0.82 2.72,0.95 c 1.9,-0.16 3.8,-0.24 5.7,-0.26 c 1.31,0.55 2.65,1.01 4.02,1.4 c 3.12,1.42 3.84,3.62 2.17,6.6 c -0.51,1.07 -2.59,1.96 -2.32,3.24 c 1.8,1.11 3.48,2.42 5.04,3.92 c 1.14,1.91 2.12,3.9 2.94,5.98 c 0.42,1.19 0.55,2.39 0.41,3.59 c 0.92,0.61 1.77,1.29 2.56,2.05 c -0.7,0.36 -1.19,0.91 -1.47,1.66 c -1.37,-0.75 -3.04,0.47 -3.93,-1.03 c 0.25,-1.83 0.42,-3.67 0.52,-5.51 c -2.59,-4.97 -2.23,-6.2 -7.6,-8.37 c -4.78,-3.01 4.57,-6.53 1.56,-9.53 c -1.7,-0.43 -3.38,-0.91 -5.06,-1.43 c -9.49,1.27 -9.68,-2.44 -14.83,-8.66 c -2.17,-2.26 -5.85,-3.78 -6.91,-6.89 c 0.68,-0.39 1.36,-0.79 2.03,-1.19 Z M 275.21,147.12 c 2.16,0.28 2.05,1.86 -0.19,1.34 c 0.11,-0.44 0.17,-0.89 0.19,-1.34 Z M 9.22,153.75 c -1.14,0.33 -2.26,0.31 -3.38,-0.08 c 1.13,-0.18 2.25,-0.15 3.38,0.08 Z M 7.1,155.96 c -0.37,0.03 -0.73,0.06 -1.1,0.09 c 0.31,-0.5 0.67,-0.53 1.1,-0.09 Z M 204.48,164.59 c 0.15,0.73 -0.13,1.01 -0.84,0.85 c 0.29,-0.27 0.57,-0.55 0.84,-0.85 Z M 202.36,166.3 c -0.79,0.97 0.83,1.88 1.51,2.22 c -0.48,0.68 -0.63,1.43 -0.44,2.24 c -0.82,0.44 -1.65,0.84 -2.51,1.2 c -0.33,-2.76 -1.17,-3.65 1.44,-5.66 Z M 119.2,175.14 c -0.72,-0.15 -1.38,0 -1.95,0.43 c 0.55,0.83 1.72,0.77 1.65,2.05 c -1.42,-0.26 -2.8,-0.64 -4.15,-1.15 c -2.81,-1.66 -4.72,-4.39 -8.28,-4.28 c -1.96,0.63 -3.86,1.45 -5.7,2.44 c -1.95,1.21 -4.18,3.85 -6.36,4.41 c -2.41,0.05 -4.82,-0.08 -7.23,-0.37 c -0.31,-0.8 -0.76,-1.5 -1.35,-2.12 c 2.22,-0.45 4.42,-0.38 6.61,0.21 c 2.67,0.28 5.29,-2.88 7.35,-4.21 c 1.89,-1.05 3.78,-2.07 5.67,-3.04 c 3.85,0.14 7.08,1.63 9.7,4.47 c 1.35,0.36 2.7,0.74 4.04,1.16 Z M 130.68,168.44 c 0.4,0.82 0.9,1.57 1.51,2.25 c -1.43,0.96 -4.06,-0.11 -5,1.03 c -0.99,4.1 -2.4,7.16 -7.43,6.01 c 0.59,-0.72 1.03,-1.52 1.33,-2.4 c 0.77,-0.06 1.51,-0.25 2.21,-0.58 c 2.01,-3.83 2.88,-5.42 7.38,-6.31 Z M 203.43,170.76 c 0.05,0.5 -0.02,0.98 -0.2,1.46 c 0.07,-0.49 0.13,-0.98 0.2,-1.46 Z M 200.67,172.92 c 0.44,0.4 0.91,0.77 1.4,1.12 c -0.57,3.95 3.81,3.24 4.28,7.03 c -1.28,2.88 -2.74,5.66 -4.37,8.35 c -1,0.54 -2.01,0.54 -3.02,0 c 0.46,-0.65 0.74,-1.37 0.86,-2.15 c 2.5,-0.74 3.24,-4.36 3.8,-6.54 c -0.8,-0.81 -1.69,-1.52 -2.69,-2.12 c -1.16,-1.35 -2.62,-4.75 -0.26,-5.69 Z M 84.93,176.93 c -0.24,0.45 -0.62,0.66 -1.14,0.63 c 0.38,-0.22 0.76,-0.42 1.14,-0.63 Z M 83.04,177.99 c -0.33,0.47 -0.78,0.72 -1.36,0.75 c 0.46,-0.24 0.91,-0.49 1.36,-0.75 Z M 85.3,179.26 c -0.43,0.23 -0.85,0.48 -1.27,0.74 c 0.17,-0.65 0.59,-0.9 1.27,-0.74 Z M 83.21,180.52 c -0.35,0.21 -0.71,0.41 -1.07,0.6 c 0.05,-0.7 0.4,-0.9 1.07,-0.6 Z M 196.8,188.58 c 0.54,-0.1 0.93,0.09 1.16,0.58 c -0.4,-0.16 -0.79,-0.36 -1.16,-0.58 Z"/></g>
<g><path fill="#d9452d" fill-opacity="0.29" stroke="#d9452d" stroke-width="0.5" stroke-opacity="0.29" d="M 172.11,19.92 c 0,-0.94 3.29,-1.58 2.35,1.2 c -0.92,1.01 -2.25,-0.01 -2.35,-1.2 Z"/></g>
</svg>
